HIERARCHY
ROOT Hips
{
 OFFSET 0.000000 0.000000 0.000000
 CHANNELS 6 Xposition Yposition Zposition Yrotation Xrotation Zrotation
 JOINT Chest
 {
  OFFSET 0.000000 9.585900 0.002600
  CHANNELS 3 Yrotation Xrotation Zrotation
  JOINT Chest2
  {
   OFFSET 0.000000 9.601200 -0.005300
   CHANNELS 3 Yrotation Xrotation Zrotation
   JOINT Chest3
   {
    OFFSET 0.000000 9.561800 0.000000
    CHANNELS 3 Yrotation Xrotation Zrotation
    JOINT Chest4
    {
     OFFSET 0.000000 9.552100 0.000000
     CHANNELS 3 Yrotation Xrotation Zrotation
     JOINT Neck
     {
      OFFSET 0.000000 14.453000 0.000000
      CHANNELS 3 Yrotation Xrotation Zrotation
      JOINT Head
      {
       OFFSET 0.000000 8.936500 -0.011300
       CHANNELS 3 Yrotation Xrotation Zrotation
       End Site
       {
        OFFSET 0.000000 17.073600 -0.006000
       }
      }
     }
     JOINT RightCollar
     {
      OFFSET -2.921100 9.558500 0.000000
      CHANNELS 3 Yrotation Xrotation Zrotation
      JOINT RightShoulder
      {
       OFFSET -13.519700 0.000000 0.000000
       CHANNELS 3 Yrotation Xrotation Zrotation
       JOINT RightElbow
       {
        OFFSET 0.000000 -29.696600 0.000000
        CHANNELS 3 Yrotation Xrotation Zrotation
        JOINT RightWrist
        {
         OFFSET 0.000000 -24.004700 0.000000
         CHANNELS 3 Yrotation Xrotation Zrotation
         End Site
         {
          OFFSET 0.000000 -17.728500 0.000000
         }
        }
       }
      }
     }
     JOINT LeftCollar
     {
      OFFSET 2.921100 9.558500 0.000000
      CHANNELS 3 Yrotation Xrotation Zrotation
      JOINT LeftShoulder
      {
       OFFSET 13.519700 0.000000 0.000000
       CHANNELS 3 Yrotation Xrotation Zrotation
       JOINT LeftElbow
       {
        OFFSET 0.000000 -29.696600 0.000000
        CHANNELS 3 Yrotation Xrotation Zrotation
        JOINT LeftWrist
        {
         OFFSET 0.000000 -24.004700 0.000000
         CHANNELS 3 Yrotation Xrotation Zrotation
         End Site
         {
          OFFSET 0.000000 -17.728500 0.000000
         }
        }
       }
      }
     }
    }
   }
  }
 }
 JOINT RightHip
 {
  OFFSET -7.771700 -0.012900 -0.001300
  CHANNELS 3 Yrotation Xrotation Zrotation
  JOINT RightKnee
  {
   OFFSET 0.000000 -40.869800 0.001200
   CHANNELS 3 Yrotation Xrotation Zrotation
   JOINT RightAnkle
   {
    OFFSET 0.000000 -39.717900 0.002100
    CHANNELS 3 Yrotation Xrotation Zrotation
    JOINT RightToe
    {
     OFFSET 0.000000 -4.965400 11.033500
     CHANNELS 3 Yrotation Xrotation Zrotation
     End Site
     {
      OFFSET 0.000000 -1.423100 5.872300
     }
    }
   }
  }
 }
 JOINT LeftHip
 {
  OFFSET 7.771700 -0.012900 -0.001300
  CHANNELS 3 Yrotation Xrotation Zrotation
  JOINT LeftKnee
  {
   OFFSET 0.000000 -40.869800 0.001200
   CHANNELS 3 Yrotation Xrotation Zrotation
   JOINT LeftAnkle
   {
    OFFSET 0.000000 -39.717900 0.002100
    CHANNELS 3 Yrotation Xrotation Zrotation
    JOINT LeftToe
    {
     OFFSET 0.000000 -4.965400 11.033500
     CHANNELS 3 Yrotation Xrotation Zrotation
     End Site
     {
      OFFSET 0.000000 -1.423100 5.872300
     }
    }
   }
  }
 }
}
MOTION
Frames: 11
Frame Time: 0.008333
0.000000 85.388000 0.000000 0.000000 -5.767877 0.000000 0.000000 11.653817 0.000000 0.000000 -5.885947 0.000000 0.000000 -0.000000 0.000000 0.000000 -0.000000 0.000000 0.000000 12.528835 0.000000 0.000000 0.711642 0.000000 0.000000 -0.000000 0.000000 0.000000 0.000000 -90.000000 0.000000 -2.309062 0.000000 0.000000 2.309062 0.000000 0.000000 -0.000000 0.000000 0.000000 -0.000000 90.000000 0.000000 -2.309062 0.000000 0.000000 2.309062 0.000000 0.000000 8.520406 0.000000 0.000000 1.905762 0.000000 -0.000000 -4.658285 0.000000 0.000000 -0.000000 0.000000 0.000000 8.520406 0.000000 0.000000 1.905762 0.000000 -0.000000 -4.658285 0.000000 0.000000 -0.000000 0.000000
-103.171085 58.152965 94.933231 172.710227 -36.432511 -1.876260 3.910133 19.114629 3.676031 0.401186 2.319806 0.385815 0.668688 3.814797 0.643868 3.276139 16.426944 3.178206 0.275758 16.393366 -2.280582 1.312638 -5.309722 -4.328660 0.137488 1.311338 -1.092436 -9.559016 -33.609428 -15.608388 113.244648 -44.299096 -133.528749 17.391488 -18.158621 -54.638573 -6.636366 -5.086587 -0.929252 28.844524 -34.738475 2.772748 -164.670985 -59.583879 170.597404 -2.045613 -15.937305 25.910853 11.976573 -38.216822 -4.759749 -1.561173 66.416922 1.406235 8.190625 21.990964 6.574660 -0.224290 -14.740420 1.761728 -6.284073 -35.908724 5.160768 21.110674 66.037105 19.234386 -18.370768 5.255821 -6.177122 0.020050 0.233336 0.242374
-103.173239 58.131735 94.949274 172.724470 -36.555660 -1.825980 3.943583 19.110578 3.651873 0.406646 2.322045 0.384972 0.677628 3.818280 0.642473 3.312720 16.430248 3.174613 0.269769 16.425084 -2.226517 1.281419 -5.252723 -4.225375 0.004270 1.296186 -1.080469 -10.212023 -33.205481 -15.429388 113.822353 -43.888458 -134.207670 17.367377 -18.163072 -54.604041 -6.583219 -4.977318 -0.867335 29.196906 -34.354495 2.841282 -164.894352 -58.841045 170.788264 -2.001190 -16.096994 26.124070 12.222168 -38.121029 -4.901001 -1.832394 66.460674 1.258778 8.195577 22.038245 6.607080 -0.222811 -14.784708 1.775655 -6.216183 -35.811034 5.083202 21.176063 66.010480 19.298165 -18.411260 5.273764 -6.217368 -0.021278 0.237763 0.240363
-103.170073 58.104799 94.972616 172.747337 -36.680022 -1.800650 3.989221 19.106440 3.656175 0.412671 2.324221 0.383617 0.687595 3.821659 0.640275 3.353322 16.433131 3.167991 0.257713 16.451316 -2.169528 1.224638 -5.193642 -4.134039 -0.130139 1.343752 -1.043635 -10.823918 -32.854859 -15.241021 114.374651 -43.507114 -134.833026 17.327636 -18.181388 -54.586777 -6.554558 -4.870983 -0.818318 29.501742 -33.972601 2.929464 -165.221407 -58.161305 171.012476 -1.925980 -16.223910 26.275065 12.314734 -38.036833 -4.933621 -1.972814 66.493720 1.133381 8.208642 22.084793 6.659148 -0.234445 -14.820280 1.780397 -6.144539 -35.732907 5.052399 21.139615 66.020522 19.275876 -18.437456 5.301946 -6.258575 -0.036731 0.236014 0.256700
-103.169781 58.076941 94.996209 172.735803 -36.842444 -1.720333 4.063314 19.136434 3.633897 0.419052 2.326251 0.381922 0.698062 3.824692 0.637597 3.396165 16.435336 3.159404 0.240872 16.475956 -2.110628 1.172140 -5.150271 -4.018385 -0.249726 1.305439 -1.024511 -11.405924 -32.405695 -15.029987 114.902151 -43.158066 -135.409731 17.290871 -18.203483 -54.572901 -6.550497 -4.760442 -0.780448 29.766992 -33.590737 3.023198 -165.700421 -57.545297 171.317786 -1.839610 -16.332736 26.378779 12.519083 -37.916687 -5.029998 -2.181820 66.539435 0.973213 8.230757 22.133929 6.726635 -0.242234 -14.861943 1.784045 -6.050008 -35.603827 4.974212 21.072076 66.033651 19.221068 -18.360836 5.288186 -6.285204 -0.080352 0.238028 0.187371
-103.180765 58.046973 95.021287 172.705946 -37.015826 -1.546045 4.131264 19.175224 3.530330 0.425889 2.327922 0.379981 0.709193 3.827212 0.634484 3.441802 16.436276 3.149333 0.220598 16.502399 -2.049301 1.125836 -5.116284 -3.877684 -0.356862 1.275937 -0.997202 -11.946729 -31.959845 -14.804188 115.393132 -42.840149 -135.931689 17.262841 -18.228470 -54.548632 -6.572539 -4.638513 -0.752808 29.996048 -33.211080 3.110199 -166.329119 -56.993829 171.709449 -1.753241 -16.434803 26.464154 12.802035 -37.782909 -5.211598 -2.382265 66.605118 0.778521 8.258528 22.171972 6.843177 -0.245158 -14.904950 1.778174 -5.891409 -35.461360 4.794824 21.090872 65.996571 19.235462 -18.249355 5.285136 -6.283845 -0.199983 0.271538 0.117321
-103.180178 58.009660 95.059815 172.759712 -37.125490 -1.484597 4.155288 19.141985 3.491088 0.433162 2.329655 0.377939 0.721085 3.829928 0.631195 3.490353 16.437228 3.138746 0.198073 16.530013 -1.986428 1.061173 -5.067530 -3.752521 -0.460117 1.283470 -0.955424 -12.431388 -31.555934 -14.558852 115.824988 -42.544184 -136.389693 17.239347 -18.259054 -54.504807 -6.616282 -4.509440 -0.736491 30.182233 -32.832504 3.187522 -167.066081 -56.497768 172.165207 -1.672814 -16.531186 26.564334 12.941288 -37.713517 -5.332002 -2.550888 66.649155 0.640654 8.276324 22.204839 6.907518 -0.239420 -14.924170 1.773574 -5.852215 -35.384216 4.695586 21.189886 65.931017 19.284721 -17.706766 5.386734 -6.288673 -0.171204 0.267073 0.116592
-103.145094 57.975525 95.102245 172.802447 -37.261192 -1.608686 4.258774 19.114331 3.659238 0.440531 2.332017 0.375925 0.733133 3.833529 0.628102 3.539335 16.439821 3.128549 0.174448 16.557516 -1.924001 0.994757 -5.018897 -3.627842 -0.551287 1.299178 -0.911391 -12.862541 -31.169942 -14.284945 116.188460 -42.262542 -136.787853 17.209909 -18.304964 -54.435014 -6.674840 -4.378927 -0.734801 30.316483 -32.453699 3.252322 -167.847306 -56.048126 172.646509 -1.597841 -16.617082 26.692896 12.924143 -37.636714 -5.172736 -2.760208 66.634211 0.469704 8.289023 22.271865 6.956477 -0.244566 -14.943400 1.767464 -5.945916 -35.266792 4.791061 21.270606 65.941124 19.311294 -16.340265 5.462497 -6.291421 0.060938 0.276383 0.197979
-103.122787 57.943454 95.142534 172.844270 -37.411632 -1.639920 4.332739 19.102139 3.733278 0.447844 2.334867 0.374086 0.744981 3.837809 0.625293 3.587357 16.443714 3.119269 0.150811 16.584800 -1.863280 0.928976 -4.970600 -3.506435 -0.631042 1.322102 -0.865648 -13.239009 -30.805247 -13.980870 116.488967 -41.992477 -137.133568 17.176739 -18.375366 -54.340010 -6.748802 -4.247809 -0.749201 30.406291 -32.078193 3.295331 -168.620958 -55.643972 173.123025 -1.523282 -16.696730 26.839113 12.950843 -37.531388 -5.124716 -2.914201 66.635817 0.334097 8.310360 22.322507 7.023702 -0.243407 -14.959083 1.744983 -5.975732 -35.134636 4.786573 21.380143 65.904465 19.343410 -15.171808 5.475820 -6.313856 0.314302 0.374292 0.315734
-103.111221 57.916264 95.177710 172.854992 -37.597623 -1.569907 4.404259 19.125860 3.724010 0.454977 2.337898 0.372373 0.756558 3.842425 0.622561 3.633898 16.448320 3.110326 0.128550 16.611806 -1.804513 0.834378 -4.888259 -3.423590 -0.702357 1.350270 -0.814541 -13.559323 -30.463202 -13.649219 116.730522 -41.730902 -137.427775 17.170577 -18.392627 -54.243971 -6.837232 -4.116145 -0.777007 30.466413 -31.710110 3.304297 -169.359977 -55.283607 173.576440 -1.452596 -16.770560 26.983625 13.026750 -37.381937 -5.147102 -3.017522 66.660708 0.206224 8.315885 22.335200 7.093293 -0.246877 -14.954990 1.731708 -5.916178 -34.967116 4.693589 21.409193 65.867322 19.335445 -14.499480 5.487412 -6.319544 0.353481 0.436183 0.354564
-103.104924 57.890950 95.212958 172.876412 -37.782385 -1.460550 4.451677 19.145379 3.667153 0.461631 2.340911 0.370477 0.767428 3.847056 0.619496 3.677081 16.453351 3.099721 0.108808 16.638695 -1.746881 0.742138 -4.802100 -3.339838 -0.765109 1.382443 -0.757129 -13.823841 -30.137863 -13.293162 116.912667 -41.474409 -137.669419 17.140361 -18.417061 -54.157560 -6.968451 -3.971912 -0.770377 30.567696 -31.343292 3.220295 -170.045656 -54.964700 173.987446 -1.394125 -16.832988 27.111197 13.098288 -37.230032 -5.200699 -3.071680 66.697496 0.086578 8.305479 22.339740 7.167333 -0.250317 -14.951355 1.725012 -5.833701 -34.800929 4.562148 21.434353 65.807294 19.318219 -14.070193 5.572222 -6.283466 0.242983 0.424846 0.321112
